<svg xmlns="http://www.w3.org/2000/svg" viewBox="0 0 100 100" width="256px" height="256px"><circle cx="13" cy="29" r="2" fill="#ee3e54"/><circle cx="77" cy="13" r="1" fill="#f1bc19"/><circle cx="50" cy="50" r="37" fill="#fce0a2"/><circle cx="83" cy="15" r="4" fill="#f1bc19"/><circle cx="87" cy="24" r="2" fill="#ee3e54"/><circle cx="81" cy="76" r="2" fill="#fbcd59"/><circle cx="15" cy="63" r="4" fill="#fbcd59"/><circle cx="25" cy="87" r="2" fill="#ee3e54"/><circle cx="18.5" cy="53.5" r="2.5" fill="#fff"/><circle cx="21" cy="67" r="1" fill="#f1bc19"/><circle cx="80" cy="34" r="1" fill="#fff"/><g><path fill="#ee3e54" d="M46.5,72C41.625,72,24,70,24,57.875c0-11.5,16-23.625,22.125-23.625c4.75,0,4.875,2.875,4.875,4.25 S50,43,50,43s5.125-2.5,9.875-2.5S65,43.625,65,44.625s-2,4.5-2,4.5s8.25,0.125,8.25,7.5S61.25,72,46.5,72z"/><path fill="#472b29" d="M46.125,35.65c3.475,0,3.475,1.647,3.475,2.85c0,0.84-0.573,2.945-0.933,4.074 c-0.171,0.534-0.006,1.118,0.418,1.485C49.344,44.283,49.67,44.4,50,44.4c0.208,0,0.418-0.047,0.613-0.142 c0.048-0.024,4.885-2.358,9.261-2.358c3.079,0,3.725,1.482,3.727,2.677c-0.059,0.46-0.908,2.261-1.818,3.853 c-0.246,0.43-0.246,0.958,0,1.388s0.7,0.699,1.195,0.706c0.281,0.004,6.871,0.172,6.871,6.1c0,6.61-9.589,13.975-23.35,13.975 c-0.211,0-21.1-0.346-21.1-12.725c0-4.639,3.034-10.144,8.323-15.104C38.656,38.146,43.794,35.65,46.125,35.65 M46.125,34.25 C40,34.25,24,46.375,24,57.875C24,70,41.625,72,46.5,72c14.75,0,24.75-8,24.75-15.375s-8.25-7.5-8.25-7.5s2-3.5,2-4.5 S64.625,40.5,59.875,40.5S50,43,50,43s1-3.125,1-4.5S50.875,34.25,46.125,34.25L46.125,34.25z"/></g><path fill="#fff" d="M46.932,47c3.102,0,14.318,2.148,14.318,9.665S51.824,68,43.949,68S29.75,62.869,29.75,58.335	S35.597,47,46.932,47z"/><path fill="#472b29" d="M29.75,58.835c-0.276,0-0.5-0.224-0.5-0.5c0-4.962,6.145-11.835,17.682-11.835	c0.911,0,2.591,0.178,4.57,0.679c0.269,0.068,0.431,0.34,0.362,0.607c-0.067,0.267-0.336,0.43-0.606,0.362	c-1.894-0.479-3.514-0.648-4.326-0.648c-10.741,0-16.682,6.407-16.682,10.835C30.25,58.612,30.026,58.835,29.75,58.835z"/><path fill="#472b29" d="M43.949,68.5c-6.269,0-11.217-3.123-13.34-6.217c-0.156-0.228-0.099-0.539,0.129-0.695	c0.229-0.155,0.54-0.099,0.695,0.129c1.975,2.878,6.61,5.783,12.516,5.783c6.977,0,16.801-3.362,16.801-10.835	c0-1.179-0.301-2.282-0.895-3.279c-0.142-0.237-0.063-0.544,0.174-0.686c0.234-0.142,0.543-0.065,0.686,0.174	c0.687,1.154,1.035,2.43,1.035,3.791C61.75,64.073,52.699,68.5,43.949,68.5z"/><path fill="#472b29" d="M57.749,50.953c-0.102,0-0.204-0.031-0.293-0.095c-0.887-0.642-1.946-1.218-3.148-1.712	c-0.255-0.105-0.377-0.397-0.272-0.652c0.106-0.255,0.397-0.377,0.653-0.272c1.274,0.524,2.402,1.139,3.354,1.826	c0.224,0.162,0.274,0.475,0.112,0.698C58.057,50.881,57.903,50.953,57.749,50.953z"/><g><path fill="#231f20" d="M45.023,51.653c2.267,0,7.636,1.193,7.636,5.847c0,5.608-4.892,7.756-8.472,7.756 c-3.58,0-7.756-1.67-7.756-5.966S40.727,51.653,45.023,51.653z"/><path fill="#472b29" d="M45.023,52.153c1.851,0,7.136,0.982,7.136,5.347c0,5.323-4.767,7.256-7.972,7.256 c-2.695,0-7.256-1.151-7.256-5.466C36.932,55.084,41.196,52.153,45.023,52.153 M45.023,51.653c-4.295,0-8.591,3.341-8.591,7.636 s4.176,5.966,7.756,5.966s8.472-2.148,8.472-7.756C52.659,52.847,47.29,51.653,45.023,51.653L45.023,51.653z"/></g><g><circle cx="42" cy="59" r="3" fill="#fff"/><path fill="#472b29" d="M42,56.5c1.378,0,2.5,1.121,2.5,2.5s-1.122,2.5-2.5,2.5s-2.5-1.121-2.5-2.5S40.622,56.5,42,56.5 M42,56c-1.657,0-3,1.343-3,3s1.343,3,3,3s3-1.343,3-3S43.657,56,42,56L42,56z"/></g><g><circle cx="47.5" cy="56.5" r="1.5" fill="#fff"/><path fill="#472b29" d="M47.5,55.5c0.551,0,1,0.449,1,1s-0.449,1-1,1s-1-0.449-1-1S46.949,55.5,47.5,55.5 M47.5,55 c-0.828,0-1.5,0.672-1.5,1.5s0.672,1.5,1.5,1.5s1.5-0.672,1.5-1.5S48.328,55,47.5,55L47.5,55z"/></g><g><path fill="#f1bc19" d="M69.5,45c-1.381,0-2.5-1.119-2.5-2.5c0-1.93-1.57-3.5-3.5-3.5c-1.381,0-2.5-1.119-2.5-2.5 s1.119-2.5,2.5-2.5c4.687,0,8.5,3.813,8.5,8.5C72,43.881,70.881,45,69.5,45z"/><path fill="#472b29" d="M63.5,35c4.135,0,7.5,3.364,7.5,7.5c0,0.827-0.673,1.5-1.5,1.5S68,43.327,68,42.5 c0-2.481-2.019-4.5-4.5-4.5c-0.827,0-1.5-0.673-1.5-1.5S62.673,35,63.5,35 M63.5,34c-1.381,0-2.5,1.119-2.5,2.5s1.119,2.5,2.5,2.5 c1.93,0,3.5,1.57,3.5,3.5c0,1.381,1.119,2.5,2.5,2.5s2.5-1.119,2.5-2.5C72,37.813,68.187,34,63.5,34L63.5,34z"/></g><g><path fill="#f1bc19" d="M76.5,45c-1.381,0-2.5-1.119-2.5-2.5C74,36.71,69.29,32,63.5,32c-1.381,0-2.5-1.119-2.5-2.5 s1.119-2.5,2.5-2.5C72.047,27,79,33.953,79,42.5C79,43.881,77.881,45,76.5,45z"/><path fill="#472b29" d="M63.5,28C71.495,28,78,34.505,78,42.5c0,0.827-0.673,1.5-1.5,1.5S75,43.327,75,42.5 C75,36.159,69.841,31,63.5,31c-0.827,0-1.5-0.673-1.5-1.5S62.673,28,63.5,28 M63.5,27c-1.381,0-2.5,1.119-2.5,2.5 s1.119,2.5,2.5,2.5C69.29,32,74,36.71,74,42.5c0,1.381,1.119,2.5,2.5,2.5s2.5-1.119,2.5-2.5C79,33.953,72.047,27,63.5,27L63.5,27z"/></g></svg>